<svg version="1.1" xmlns="http://www.w3.org/2000/svg" xmlns:xlink="http://www.w3.org/1999/xlink" viewBox="0 0 226 226"><defs><linearGradient x1="47.28579" y1="48.26513" x2="180.35742" y2="181.33204" gradientUnits="userSpaceOnUse" id="color-1"><stop offset="0" stop-color="#bd4ff4"></stop><stop offset="0.587" stop-color="#a235ec"></stop><stop offset="1" stop-color="#8c20e5"></stop></linearGradient></defs><g fill="none" fill-rule="nonzero" stroke="none" stroke-width="1" stroke-linecap="butt" stroke-linejoin="miter" stroke-miterlimit="10" stroke-dasharray="" stroke-dashoffset="0" font-family="none" font-weight="none" font-size="none" text-anchor="none" style="mix-blend-mode: normal"><path d="M0,226v-226h226v226z" fill="none"></path><g><path d="M120.99475,22.7695l6.00312,6.93067l7.92883,-4.60946c5.56996,-3.23933 12.7125,-0.78629 15.12317,5.19329l3.42767,8.50325l8.99292,-1.78446c6.31858,-1.25242 12.27933,3.38529 12.61833,9.82158l0.48025,9.15771l9.08708,1.23358c6.3845,0.86633 10.51371,7.18963 8.74337,13.38579l-2.51896,8.814l8.1925,4.11508c5.75829,2.89092 7.60867,10.21708 3.92675,15.49983l-5.24508,7.51921l6.41275,6.554c4.50588,4.60475 3.87967,12.13338 -1.31833,15.933l-7.4015,5.40988l3.93617,8.28196c2.7685,5.8195 -0.26838,12.73604 -6.42217,14.64292l-8.7575,2.712l1.03583,9.11063c0.72508,6.39863 -4.38817,11.95917 -10.82917,11.76142l-9.16242,-0.27779l-1.9775,8.95054c-1.38896,6.29033 -8.03242,9.8875 -14.05908,7.60867l-8.57858,-3.23933l-4.77896,7.82525c-3.35704,5.49933 -10.81033,6.74233 -15.76821,2.63196l-7.08604,-5.85717l-7.0625,5.84775c-4.96258,4.11037 -12.41117,2.86737 -15.76821,-2.63196l-4.77896,-7.82525l-8.57858,3.23933c-6.02667,2.27412 -12.67012,-1.31833 -14.05908,-7.60867l-1.9775,-8.95054l-9.16242,0.27779c-6.441,0.19775 -11.55425,-5.36279 -10.82917,-11.76142l1.03583,-9.11063l-8.7575,-2.712c-6.15379,-1.90688 -9.19067,-8.82342 -6.42217,-14.64292l3.93617,-8.28196l-7.4015,-5.40988c-5.20742,-3.79021 -5.82892,-11.31883 -1.32304,-15.92358l6.41275,-6.554l-5.24508,-7.51921c-3.68663,-5.28275 -1.83154,-12.60421 3.92675,-15.49983l8.1925,-4.11508l-2.51896,-8.814c-1.77033,-6.19146 2.35888,-12.51946 8.74338,-13.38579l9.08708,-1.23358l0.48025,-9.15771c0.33429,-6.43158 6.29975,-11.074 12.61833,-9.82158l8.99292,1.78446l3.42767,-8.50325c2.40596,-5.97488 9.55321,-8.42792 15.12317,-5.19329l7.92883,4.60946l6.00312,-6.93067c4.19983,-4.86842 11.752,-4.86842 15.97067,0z" fill="url(#color-1)"></path><path d="M55.53008,135.6v-45.2c0,-0.51792 0.42375,-0.94167 0.94167,-0.94167h8.43263c0.37196,0 0.70625,0.21658 0.85692,0.55558l7.75933,17.29371c1.88804,4.03504 4.33638,10.02404 5.92779,14.51108l0.15538,-0.00942c-0.43788,-5.30629 -0.91342,-12.93379 -0.91342,-21.06037v-10.34892c0,-0.51792 0.42375,-0.94167 0.94167,-0.94167h6.91654c0.51792,0 0.94167,0.42375 0.94167,0.94167v45.2c0,0.51792 -0.42375,0.94167 -0.94167,0.94167h-7.98533c-0.37196,0 -0.70625,-0.21658 -0.85692,-0.55087l-7.797,-17.21367c-2.00575,-4.33638 -4.46821,-10.3395 -5.95604,-14.9725l-0.17421,0.00471c0.28721,5.21683 0.55558,12.32171 0.55558,21.14983v10.64083c0,0.51792 -0.42375,0.94167 -0.94167,0.94167h-6.91654c-0.52263,0 -0.94638,-0.42375 -0.94638,-0.94167z" fill="#ffffff"></path><path d="M117.87312,116.19225h-12.04863v11.98742h13.64946c0.51792,0 0.94167,0.42375 0.94167,0.94167v6.47867c0,0.51792 -0.42375,0.94167 -0.94167,0.94167h-22.57175c-0.51792,0 -0.94167,-0.42375 -0.94167,-0.94167v-45.2c0,-0.51792 0.42375,-0.94167 0.94167,-0.94167h21.70542c0.51792,0 0.94167,0.42375 0.94167,0.94167v6.47867c0,0.51792 -0.42375,0.94167 -0.94167,0.94167h-12.78312v10.25946h12.04863c0.51792,0 0.94167,0.42375 0.94167,0.94167v6.22913c0,0.52262 -0.41904,0.94167 -0.94167,0.94167z" fill="#ffffff"></path><path d="M132.96804,135.77892l-8.72925,-45.2c-0.113,-0.57913 0.33429,-1.12058 0.92283,-1.12058h8.40437c0.47083,0 0.86633,0.32017 0.92754,0.791c0.63563,4.76483 3.95971,29.63896 4.53412,34.51679h0.16008c0.63563,-5.04263 5.30629,-29.93087 6.18204,-34.56388c0.08475,-0.44729 0.47083,-0.74392 0.92283,-0.74392h7.36383c0.46142,0 0.8475,0.30604 0.92283,0.75804c0.78158,4.64242 4.89196,29.17754 5.45225,34.45558h0.15067c0.565,-5.2545 4.05387,-29.73783 4.72246,-34.43675c0.06592,-0.46142 0.46142,-0.77687 0.92754,-0.77687h7.81112c0.59325,0 1.04054,0.54617 0.92283,1.13l-9.20479,45.2c-0.08946,0.43788 -0.47554,0.75333 -0.92283,0.75333h-8.83283c-0.452,0 -0.84279,-0.32487 -0.92754,-0.76746l-2.98979,-16.06483c-0.81454,-4.4635 -1.52079,-9.492 -2.13287,-15.12788h-0.13654c-0.82867,5.58408 -1.59612,10.55137 -2.60371,15.17496l-3.39942,16.04129c-0.08946,0.43317 -0.47083,0.74392 -0.91813,0.74392h-8.60683c-0.452,0 -0.83808,-0.32017 -0.92283,-0.76275z" fill="#ffffff"></path></g></g></svg>