<svg version="1.1" xmlns="http://www.w3.org/2000/svg" xmlns:xlink="http://www.w3.org/1999/xlink" viewBox="0 0 226 226"><defs><linearGradient x1="113" y1="13.24219" x2="113" y2="209.39959" gradientUnits="userSpaceOnUse" id="color-1"><stop offset="0" stop-color="#1a6dff"></stop><stop offset="1" stop-color="#c822ff"></stop></linearGradient><linearGradient x1="77.6875" y1="84.16028" x2="77.6875" y2="146.54688" gradientUnits="userSpaceOnUse" id="color-2"><stop offset="0" stop-color="#8ab4ff"></stop><stop offset="1" stop-color="#e492ff"></stop></linearGradient></defs><g fill="none" fill-rule="nonzero" stroke="none" stroke-width="1" stroke-linecap="butt" stroke-linejoin="miter" stroke-miterlimit="10" stroke-dasharray="" stroke-dashoffset="0" font-family="none" font-weight="none" font-size="none" text-anchor="none" style="mix-blend-mode: normal"><path d="M0,226v-226h226v226z" fill="none"></path><g><path d="M176.5625,38.84375h-52.96875v-7.15078c0,-3.31231 -1.5255,-6.35978 -4.18453,-8.35847c-2.69434,-2.03047 -6.10906,-2.66609 -9.36134,-1.72325l-65.54353,18.86394c-7.48978,2.15406 -12.72309,9.05059 -12.72309,16.76991v111.50981c0,7.72284 5.23331,14.61937 12.72309,16.77344l65.54353,18.86394c0.98875,0.28603 1.99162,0.42375 2.98391,0.42375c2.27766,0 4.49881,-0.7345 6.37744,-2.147c2.65903,-1.99869 4.18453,-5.04969 4.18453,-8.35847v-7.15431h52.96875c9.73566,0 17.65625,-7.92059 17.65625,-17.65625v-113c0,-9.73213 -7.92059,-17.65625 -17.65625,-17.65625zM116.53125,194.31056c0,1.0735 -0.50144,2.06225 -1.37012,2.71906c-0.90753,0.68153 -2.05872,0.89341 -3.164,0.57913l-65.54,-18.86394c-4.48116,-1.29244 -7.61338,-5.39928 -7.61338,-9.98991v-111.50981c0,-4.59063 3.13222,-8.69747 7.61338,-9.98637l65.54,-18.86394c1.10175,-0.31781 2.25294,-0.10594 3.164,0.57912c0.86869,0.65681 1.37012,1.64556 1.37012,2.71906v7.15078v148.3125zM187.15625,169.5c0,5.84069 -4.75306,10.59375 -10.59375,10.59375h-52.96875v-21.1875h49.4375v-7.0625h-49.4375v-14.125h49.4375v-7.0625h-49.4375v-14.125h49.4375v-7.0625h-49.4375v-14.125h49.4375v-7.0625h-49.4375v-14.125h49.4375v-7.0625h-49.4375v-21.1875h52.96875c5.84069,0 10.59375,4.75306 10.59375,10.59375z" fill="url(#color-1)"></path><path d="M59.56866,141.25l-11.65313,-49.4375h9.25188l4.52,22.12328c1.20063,6.23972 2.33063,9.65797 3.1075,16.72047h0.14125c0.77688,-7.0625 2.11875,-10.32891 3.46063,-16.79462l5.15916,-22.04913h9.11416l4.73188,20.77434c1.20063,6.08787 2.18937,11.00691 2.89562,14.53816h0.14125c0.8475,-3.53125 1.9775,-8.67981 3.24875,-14.916l4.94375,-20.3965h8.82813l-12.78666,49.4375h-9.3225l-4.94375,-23.34156c-1.20063,-5.85834 -2.04812,-11.97094 -2.61312,-15.50219h-0.14125c-0.8475,3.53125 -1.76562,9.64384 -3.17812,15.50219l-5.51228,23.34156z" fill="url(#color-2)"></path></g></g></svg>